<svg xmlns="http://www.w3.org/2000/svg" xmlns:xlink="http://www.w3.org/1999/xlink" viewBox="0 0 200 100" fill="#fff" stroke="#000">
  <!-- Define the styles for the node -->
  <symbol id="node" overflow="visible">
    <use xlink:href="#C" stroke="none" fill="#000"/>
    <use xlink:href="#D" stroke="none" fill="#000"/>
    <path d="M22.442 6.685l2.362 3.543-9.054 2.362 1.968-1.575L3.547 8.653 7.09 5.898 20.867 8.26l1.575-1.575zm12.596 8.66l-1.575-3.543 8.267-1.575-1.575 1.181 13.778 2.362-3.543 2.755-13.384-2.755-1.968 1.575zm-4.33-10.628l9.054-2.362v3.936L37.4 5.898l-4.33 3.543-4.33-.394 4.724-3.936-2.755-.394zm-3.937 14.171l-8.66 1.575-.394-3.936 2.362.394 4.724-3.936 4.33.787-5.117 4.33 2.755.787z" stroke="none"/>
  </symbol>

  <!-- Define the shapes -->
  <defs>
    <path id="C" d="M57.865 11.416c0 5.905-12.99 11.022-28.736 11.022C12.99 22.438 0 17.321 0 11.416v16.139c0 6.298 12.99 11.416 29.129 11.416 15.745 0 28.736-5.117 28.736-11.416z"/>
    <path id="D" d="M29.129 22.437c15.745 0 28.736-5.117 28.736-11.022C57.865 5.117 44.875 0 29.129 0 12.99 0 0 5.117 0 11.416c0 5.905 12.99 11.022 29.129 11.022z"/>
  </defs>

  <!-- Line connecting the nodes -->
  <line id="line" x1="40" y1="30" x2="140" y2="60" stroke="grey" stroke-width="2" stroke-dasharray="100%" stroke-dashoffset="100%">
    <!-- Animate the drawing of the line -->
    <animate attributeName="stroke-dashoffset" from="100%" to="0%" dur="3s" fill="freeze" />
    <!-- Animate blinking after line is drawn -->
    <animate attributeName="visibility" begin="2s" dur="0.25s" values="hidden;visible" repeatCount="7" fill="freeze" />
    <!-- Turn line green after 2 seconds of blinking -->
    <set attributeName="stroke" to="green" begin="4.1s" fill="freeze" />
  </line>

  <!-- Nodes (placed after the line to appear above it) -->
  <use xlink:href="#node" x="20" y="20" />
  <use xlink:href="#node" x="120" y="50" />
</svg>
